# File created by Blade
# Date/Time:  Wed Apr 08 17:31:45 2015
#---------------------------------------------------------
:version 1.10
:name HOM
:units
  mass 1.0
  length 1.000000
  angle deg
:documentation
     Acclaim Skeleton File
:root
   axis xyz
   order TX TY TZ RX RY RZ
   position 0.000000 0.000000 0.000000
   orientation 0 0 0
:bonedata
   begin
      id 1
      name Spine_dum
      direction 0.000000 1.000000 0.000000
      length 5.893853
      axis 0.0 0.0 0.0 xyz
   end
   begin
      id 2
      name LeftUpLeg_dum
      direction 1.000000 0.000000 0.000000
      length 3.697939
      axis 0.0 0.0 0.0 xyz
   end
   begin
      id 3
      name RightUpLeg_dum
      direction -1.000000 0.000000 0.000000
      length 3.697939
      axis 0.0 0.0 0.0 xyz
   end
   begin
      id 4
      name Spine
      direction 0.000000 1.000000 0.000000
      length 0.000000
      axis 0.0 0.0 0.0 xyz
      dof rx ry rz
   end
   begin
      id 5
      name Spine_dum1
      direction 0.000000 1.000000 0.000000
      length 16.447146
      axis 0.0 0.0 0.0 xyz
   end
   begin
      id 6
      name Spine_dum2
      direction 0.000000 1.000000 0.000000
      length 10.900383
      axis 0.0 0.0 0.0 xyz
   end
   begin
      id 7
      name Spine_dum3
      direction 0.000000 1.000000 0.000000
      length 10.900383
      axis 0.0 0.0 0.0 xyz
   end
   begin
      id 8
      name Head
      direction 0.000000 1.000000 0.000000
      length 4.527550
      axis 0.0 0.0 0.0 xyz
      dof rx ry rz
   end
   begin
      id 9
      name LeftShoulder
      direction 1.000000 0.000000 0.000000
      length 8.219464
      axis 0.0 0.0 -90.0 xyz
      dof rx ry rz
   end
   begin
      id 10
      name LeftArm
      direction 1.000000 0.000000 0.000000
      length 11.094937
      axis 0.0 0.0 -90.0 xyz
      dof rx ry rz
   end
   begin
      id 11
      name LeftForeArm
      direction 1.000000 0.000000 0.000000
      length 9.103875
      axis 0.0 0.0 -90.0 xyz
      dof ry rz rx
   end
   begin
      id 12
      name LeftHand
      direction 0.000000 0.000000 0.000000
      length 0.000000
      axis 0.0 0.0 -90.0 xyz
      dof rx ry rz
   end
   begin
      id 13
      name LeftHand_dum1
      direction 0.000000 0.000000 0.000000
      length 0.000000
      axis 0.0 0.0 -90.0 xyz
   end
   begin
      id 14
      name LeftHand_dum2
      direction 1.000000 0.000000 0.000000
      length 3.937000
      axis 0.0 0.0 -90.0 xyz
   end
   begin
      id 15
      name LeftHandThumb1
      direction 0.000000 0.000000 1.000000
      length 3.937000
      axis 0.0 0.0 -90.0 xyz
      dof rx rz ry
   end
   begin
      id 16
      name RightShoulder
      direction -1.000000 0.000000 0.000000
      length 8.219464
      axis 0.0 0.0 90.0 xyz
      dof rx ry rz
   end
   begin
      id 17
      name RightArm
      direction -1.000000 0.000000 0.000000
      length 11.094937
      axis 0.0 0.0 90.0 xyz
      dof rx ry rz
   end
   begin
      id 18
      name RightForeArm
      direction -1.000000 0.000000 0.000000
      length 9.103875
      axis 0.0 0.0 90.0 xyz
      dof ry rz rx
   end
   begin
      id 19
      name RightHand
      direction 0.000000 0.000000 0.000000
      length 0.000000
      axis 0.0 0.0 90.0 xyz
      dof rx ry rz
   end
   begin
      id 20
      name RightHand_dum1
      direction 0.000000 0.000000 0.000000
      length 0.000000
      axis 0.0 0.0 90.0 xyz
   end
   begin
      id 21
      name RightHand_dum2
      direction -1.000000 0.000000 0.000000
      length 3.937000
      axis 0.0 0.0 90.0 xyz
   end
   begin
      id 22
      name RightHandThumb1
      direction 0.000000 0.000000 1.000000
      length 3.937000
      axis 0.0 0.0 90.0 xyz
      dof rx rz ry
   end
   begin
      id 23
      name LeftUpLeg
      direction 0.000000 -1.000000 0.000000
      length 16.181467
      axis 0.0 0.0 0.0 xyz
      dof rx ry rz
   end
   begin
      id 24
      name LeftLeg
      direction 0.000000 -1.000000 0.000000
      length 16.501392
      axis 0.0 0.0 0.0 xyz
      dof rx ry rz
   end
   begin
      id 25
      name LeftFoot
      direction 0.000000 -0.258819 0.965926
      length 6.408245
      axis 15.0 0.0 0.0 xyz
      dof rx ry rz
   end
   begin
      id 26
      name LeftToeBase
      direction 0.000000 0.000000 1.000000
      length 2.952750
      axis 0.0 0.0 0.0 xyz
      dof rx ry rz
   end
   begin
      id 27
      name RightUpLeg
      direction 0.000000 -1.000000 0.000000
      length 16.181467
      axis 0.0 0.0 0.0 xyz
      dof rx ry rz
   end
   begin
      id 28
      name RightLeg
      direction 0.000000 -1.000000 0.000000
      length 16.501392
      axis 0.0 0.0 0.0 xyz
      dof rx ry rz
   end
   begin
      id 29
      name RightFoot
      direction 0.000000 -0.258819 0.965926
      length 6.408245
      axis 15.0 0.0 0.0 xyz
      dof rx ry rz
   end
   begin
      id 30
      name RightToeBase
      direction 0.000000 0.000000 1.000000
      length 2.952750
      axis 0.0 0.0 0.0 xyz
      dof rx ry rz
   end
:hierarchy
   begin
      root Spine_dum LeftUpLeg_dum RightUpLeg_dum
      Spine_dum Spine
      LeftUpLeg_dum LeftUpLeg
      RightUpLeg_dum RightUpLeg
      Spine Spine_dum1 Spine_dum2 Spine_dum3
      Spine_dum1 Head
      Spine_dum2 LeftShoulder
      Spine_dum3 RightShoulder
      LeftShoulder LeftArm
      LeftArm LeftForeArm
      LeftForeArm LeftHand
      LeftHand LeftHand_dum1 LeftHand_dum2
      LeftHand_dum1 LeftHandThumb1
      RightShoulder RightArm
      RightArm RightForeArm
      RightForeArm RightHand
      RightHand RightHand_dum1 RightHand_dum2
      RightHand_dum1 RightHandThumb1
      LeftUpLeg LeftLeg
      LeftLeg LeftFoot
      LeftFoot LeftToeBase
      RightUpLeg RightLeg
      RightLeg RightFoot
      RightFoot RightToeBase
   end

# File created by Blade
# Date/Time:  Wed Apr 08 17:31:39 2015
# Frame Rate: 120.000 fps
#------------------------------------------------------
:FULLY-SPECIFIED
:DEGREES
148
root 7.249846 35.916472 -1.571753 -95.968420 -89.338501 116.607492
Spine -10.863961 3.391513 0.826836
Head 14.135728 9.684168 2.272899
LeftShoulder -6.044131 19.961318 17.751827
LeftArm 22.229995 12.997330 -85.605147
LeftForeArm 22.756987 -0.000000 32.380286
LeftHand -10.841831 -0.000000 -5.870653
LeftHandThumb1 -26.253704 0.000000 33.147579
RightShoulder -24.971689 -49.032970 1.800998
RightArm 65.979966 1.012338 47.095655
RightForeArm -2.353792 0.000000 48.395494
RightHand -1.835298 -0.000000 7.492800
RightHandThumb1 -24.326973 -0.000000 -32.862282
LeftUpLeg -35.883296 13.944807 1.556625
LeftLeg 19.063070 -0.000000 -0.000000
LeftFoot -5.224507 5.805105 -12.367332
LeftToeBase -5.927034 -0.000000 0.000000
RightUpLeg -26.977227 -5.587739 -3.335821
RightLeg 18.058414 -0.000000 -0.000000
RightFoot -15.948647 -4.582577 19.495174
RightToeBase 9.560019 -0.000000 -0.000000
149
root 7.208238 35.908457 -1.495499 -90.344276 -89.501568 111.034791
Spine -10.805449 3.458608 0.736458
Head 14.199049 9.504786 2.413235
LeftShoulder -6.037883 19.969002 17.794786
LeftArm 22.299122 13.840620 -85.508301
LeftForeArm 22.483928 -0.000000 31.424614
LeftHand -10.781335 0.000000 -6.096851
LeftHandThumb1 -26.253704 0.000000 33.147579
RightShoulder -25.227244 -49.220682 2.184082
RightArm 65.866028 0.321961 46.737407
RightForeArm -2.473860 0.000000 48.198720
RightHand -1.978116 -0.000000 7.468028
RightHandThumb1 -24.326973 -0.000000 -32.862282
LeftUpLeg -35.895863 13.827970 1.600602
LeftLeg 19.094392 -0.000000 -0.000000
LeftFoot -4.968615 5.869541 -11.884569
LeftToeBase -5.140040 -0.000000 0.000000
RightUpLeg -26.855552 -5.646228 -3.323475
RightLeg 17.905673 -0.000000 -0.000000
RightFoot -15.934376 -4.576112 19.652583
RightToeBase 9.559675 -0.000000 -0.000000
150
root 7.163089 35.901341 -1.415816 -78.522000 -89.631834 99.256610
Spine -10.744047 3.511371 0.614681
Head 14.233320 9.335902 2.591857
LeftShoulder -6.013028 19.971607 17.831267
LeftArm 22.312256 14.630635 -85.390439
LeftForeArm 22.207100 -0.000000 30.554798
LeftHand -10.652273 0.000000 -6.316599
LeftHandThumb1 -26.253704 0.000000 33.147579
RightShoulder -25.513689 -49.396258 2.546680
RightArm 65.813158 -0.405475 46.386093
RightForeArm -2.571551 0.000000 47.862289
RightHand -1.934725 -0.000000 7.445629
RightHandThumb1 -24.326973 -0.000000 -32.862282
LeftUpLeg -35.900860 13.702812 1.620692
LeftLeg 19.135859 -0.000000 -0.000000
LeftFoot -4.807749 5.980561 -11.404574
LeftToeBase -4.224860 -0.000000 0.000000
RightUpLeg -26.728159 -5.678782 -3.349263
RightLeg 17.769307 -0.000000 -0.000000
RightFoot -15.943425 -4.625257 19.802979
RightToeBase 9.541995 -0.000000 -0.000000
151
root 7.117136 35.895544 -1.329613 -62.545809 -89.704949 83.319604
Spine -10.671531 3.543043 0.449618
Head 14.248789 9.198291 2.777723
LeftShoulder -6.022372 19.996338 17.851132
LeftArm 22.291979 15.321487 -85.276653
LeftForeArm 22.286111 -0.000000 29.815098
LeftHand -10.534308 -0.000000 -6.722940
LeftHandThumb1 -26.253704 0.000000 33.147579
RightShoulder -25.748472 -49.527329 2.889966
RightArm 65.711490 -1.126118 45.962766
RightForeArm -2.615494 0.000000 47.550765
RightHand -1.979648 -0.000000 7.449866
RightHandThumb1 -24.326973 -0.000000 -32.862282
LeftUpLeg -35.924308 13.621723 1.581555
LeftLeg 19.202839 -0.000000 -0.000000
LeftFoot -4.659083 6.097055 -11.060668
LeftToeBase -3.484569 -0.000000 0.000000
RightUpLeg -26.624177 -5.706273 -3.417396
RightLeg 17.681063 -0.000000 -0.000000
RightFoot -15.952338 -4.671523 19.947611
RightToeBase 9.538814 -0.000000 -0.000000
152
root 7.070474 35.890238 -1.238796 -45.775995 -89.693875 66.574098
Spine -10.568750 3.585718 0.200061
Head 14.219212 9.011290 2.993983
LeftShoulder -6.027237 20.081558 17.882112
LeftArm 22.345940 15.953608 -85.123415
LeftForeArm 22.515983 -0.000000 29.128703
LeftHand -10.271297 -0.000000 -7.186851
LeftHandThumb1 -26.253704 0.000000 33.147579
RightShoulder -26.030067 -49.581508 3.253078
RightArm 65.579151 -1.895370 45.517158
RightForeArm -2.633073 -0.000000 47.210831
RightHand -1.922707 -0.000000 7.484089
RightHandThumb1 -24.326973 -0.000000 -32.862282
LeftUpLeg -35.961811 13.569396 1.469749
LeftLeg 19.295298 -0.000000 -0.000000
LeftFoot -4.504589 6.137849 -10.948935
LeftToeBase -2.492719 -0.000000 0.000000
RightUpLeg -26.528558 -5.763798 -3.547304
RightLeg 17.642472 -0.000000 -0.000000
RightFoot -15.970696 -4.705261 20.066697
RightToeBase 9.477324 -0.000000 -0.000000
153
root 7.020501 35.886525 -1.145575 -22.027285 -89.600202 42.821061
Spine -10.433326 3.525115 -0.003363
Head 14.177794 8.845548 3.175190
LeftShoulder -6.039536 20.124016 17.873826
LeftArm 22.321984 16.642505 -84.923034
LeftForeArm 22.572662 -0.000000 28.576194
LeftHand -10.333160 0.000000 -7.432524
LeftHandThumb1 -26.253704 0.000000 33.147579
RightShoulder -26.265716 -49.665124 3.555973
RightArm 65.457913 -2.649122 45.112870
RightForeArm -2.587064 0.000000 46.865857
RightHand -1.898566 -0.000000 7.522431
RightHandThumb1 -24.326973 -0.000000 -32.862282
LeftUpLeg -35.985480 13.383900 1.416040
LeftLeg 19.404182 -0.000000 -0.000000
LeftFoot -4.416871 6.246812 -10.943502
LeftToeBase -0.957359 -0.000000 0.000000
RightUpLeg -26.387010 -5.884740 -3.657914
RightLeg 17.605075 -0.000000 -0.000000
RightFoot -15.997341 -4.765848 20.189689
RightToeBase 9.467684 -0.000000 -0.000000
154
root 6.974434 35.882074 -1.048906 -23.994757 -89.567975 44.792120
Spine -10.291209 3.586312 -0.343787
Head 14.096656 8.665489 3.407878
LeftShoulder -6.078206 20.193583 17.899512
LeftArm 22.362263 17.359299 -84.663006
LeftForeArm 22.670165 -0.000000 28.007984
LeftHand -10.213792 -0.000000 -7.520259
LeftHandThumb1 -26.253704 0.000000 33.147579
RightShoulder -26.413349 -49.720390 3.799789
RightArm 65.260839 -3.408926 44.842612
RightForeArm -2.598078 -0.000000 46.562682
RightHand -1.904051 -0.000000 7.657996
RightHandThumb1 -24.326973 -0.000000 -32.862282
LeftUpLeg -36.042920 13.331159 1.258583
LeftLeg 19.591538 -0.000000 -0.000000
LeftFoot -4.425806 6.369430 -10.974620
LeftToeBase 0.996503 -0.000000 -0.000000
RightUpLeg -26.350395 -5.865982 -3.864690
RightLeg 17.696324 -0.000000 -0.000000
RightFoot -16.054902 -4.842288 20.291461
RightToeBase 9.466091 -0.000000 -0.000000
